<svg width="206" height="54" viewBox="0 0 206 54" fill="none" xmlns="http://www.w3.org/2000/svg">
<path d="M17.8149 7.4541H26.1899C28.0141 7.4541 29.3798 7.88649 30.2899 8.75503C31.1965 9.62356 31.6516 10.8602 31.6516 12.4645C31.6516 14.1108 31.1549 15.4004 30.1649 16.3256C29.1747 17.2549 27.6616 17.7178 25.6285 17.7178H22.8669V23.7486H17.8149V7.4541ZM22.8669 14.4178H24.1074C25.086 14.4178 25.7726 14.2474 26.1669 13.9095C26.5615 13.5721 26.7586 13.1397 26.7586 12.6126C26.7586 12.1006 26.5882 11.668 26.2428 11.3115C25.9016 10.9549 25.2568 10.7766 24.3087 10.7766H22.8669V14.4178Z" fill="white"/>
<path d="M36.4074 15.7607L32.0834 15.3057C32.2464 14.547 32.4815 13.9516 32.7888 13.5192C33.0962 13.083 33.536 12.7076 34.1165 12.3889C34.5297 12.1576 35.0989 11.9792 35.8231 11.854C36.5477 11.729 37.3328 11.6645 38.1787 11.6645C39.5328 11.6645 40.6175 11.7403 41.4407 11.892C42.26 12.0437 42.9464 12.3624 43.4925 12.8442C43.8797 13.178 44.1828 13.652 44.403 14.2625C44.6268 14.8733 44.7366 15.4576 44.7366 16.015V21.2342C44.7366 21.7918 44.7709 22.2278 44.8428 22.5427C44.9113 22.8576 45.0667 23.2597 45.3018 23.7488H41.0652C40.8944 23.4455 40.7846 23.2179 40.7314 23.0585C40.682 22.8992 40.6291 22.6528 40.5757 22.3151C39.9843 22.8841 39.3962 23.2898 38.8081 23.5327C38.0079 23.8587 37.0786 24.022 36.0204 24.022C34.6131 24.022 33.5435 23.6957 32.8156 23.0396C32.0834 22.3872 31.7192 21.5792 31.7192 20.6234C31.7192 19.7246 31.981 18.9849 32.5082 18.4046C33.0353 17.8243 34.0064 17.3917 35.4212 17.111C37.1167 16.7698 38.2167 16.5309 38.7212 16.3906C39.2254 16.254 39.7603 16.0757 40.3217 15.8519C40.3217 15.2943 40.208 14.9075 39.9767 14.6835C39.7489 14.4598 39.3468 14.3499 38.7706 14.3499C38.0308 14.3499 37.477 14.4674 37.1053 14.7065C36.817 14.8962 36.5858 15.245 36.4074 15.7607ZM40.3217 18.1277C39.6998 18.3515 39.051 18.5487 38.3722 18.7231C37.4541 18.9695 36.8702 19.2127 36.6273 19.4515C36.3731 19.698 36.2479 19.9786 36.2479 20.2936C36.2479 20.6539 36.3731 20.9497 36.6198 21.1773C36.8702 21.4048 37.2343 21.5187 37.7159 21.5187C38.2205 21.5187 38.6907 21.3932 39.1269 21.1468C39.5595 20.9003 39.8664 20.6005 40.0485 20.2442C40.2307 19.8877 40.3217 19.4248 40.3217 18.8559V18.1277Z" fill="white"/>
<path d="M46.1709 11.9376H50.4113V13.8642C50.821 13.0261 51.242 12.4496 51.6744 12.1347C52.1105 11.8199 52.6452 11.6645 53.2827 11.6645C53.9539 11.6645 54.6859 11.8731 55.4786 12.2903L54.0754 15.5029C53.5405 15.2792 53.1157 15.1693 52.8047 15.1693C52.2131 15.1693 51.7502 15.4157 51.4242 15.9048C50.9575 16.5952 50.7225 17.8888 50.7225 19.7814V23.7488H46.1709V11.9376Z" fill="white"/>
<path d="M68.0861 23.7488H63.8569V21.8447C63.2274 22.6298 62.5938 23.1874 61.9565 23.5213C61.3158 23.8549 60.5306 24.0219 59.5976 24.0219C58.3534 24.0219 57.3823 23.6503 56.673 22.9029C55.9677 22.1596 55.6147 21.0102 55.6147 19.459V11.9376H60.1663V18.4461C60.1663 19.1859 60.3029 19.713 60.576 20.028C60.8491 20.3389 61.2321 20.4944 61.7252 20.4944C62.2601 20.4944 62.7001 20.286 63.0453 19.8725C63.3865 19.4553 63.5573 18.7079 63.5573 17.6305V11.9376H68.0861V23.7488Z" fill="white"/>
<path d="M69.6787 7.4541H74.2073V23.7486H69.6787V7.4541Z" fill="white"/>
<path d="M80.4997 5.45691C81.2032 5.45691 81.8899 5.63687 82.5611 5.99896C83.2306 6.3595 83.7542 6.87728 84.1278 7.54876C84.5013 8.22202 84.689 8.92354 84.689 9.65173C84.689 10.3744 84.505 11.0703 84.1352 11.736C83.7673 12.4037 83.2515 12.9212 82.5858 13.2891C81.9201 13.6592 81.2241 13.8432 80.4997 13.8432C79.7733 13.8432 79.0774 13.6592 78.4115 13.2891C77.746 12.9212 77.2282 12.4037 76.8583 11.736C76.4885 11.0703 76.3027 10.3744 76.3027 9.65173C76.3027 8.92354 76.4905 8.22202 76.8659 7.54876C77.2433 6.87728 77.7669 6.3595 78.4364 5.99896C79.1076 5.63687 79.794 5.45691 80.4997 5.45691ZM80.4997 6.15088C79.9099 6.15088 79.3352 6.30254 78.7776 6.60414C78.2202 6.90551 77.784 7.33812 77.4689 7.8995C77.1541 8.46088 76.9967 9.04498 76.9967 9.65173C76.9967 10.2569 77.1524 10.8352 77.4615 11.389C77.7707 11.9426 78.2031 12.3752 78.7587 12.6844C79.3143 12.9935 79.8948 13.149 80.4997 13.149C81.1027 13.149 81.683 12.9935 82.2388 12.6844C82.7944 12.3752 83.2268 11.9426 83.5342 11.389C83.8414 10.8352 83.9948 10.2569 83.9948 9.65173C83.9948 9.04498 83.8376 8.46088 83.5244 7.8995C83.2117 7.33812 82.7755 6.90551 82.2159 6.60414C81.6565 6.30254 81.0838 6.15088 80.4997 6.15088ZM78.6581 11.9657V7.45958H80.2095C80.7404 7.45958 81.1236 7.50114 81.3605 7.58477C81.5998 7.66796 81.7873 7.81211 81.9297 8.02096C82.0698 8.22759 82.1401 8.44756 82.1401 8.68087C82.1401 9.00894 82.0226 9.29717 81.7855 9.53983C81.5504 9.78471 81.2375 9.92105 80.8467 9.95152C81.006 10.0178 81.135 10.0974 81.2297 10.1904C81.4119 10.3668 81.6336 10.6646 81.8974 11.0836L82.4472 11.9657H81.5638L81.1614 11.2564C80.8467 10.6968 80.5907 10.3459 80.3972 10.2055C80.2644 10.1032 80.0709 10.0519 79.8149 10.0539H79.3866V11.9657H78.6581ZM79.3866 9.42797H80.27C80.6932 9.42797 80.9815 9.36548 81.135 9.24026C81.2884 9.11526 81.3665 8.94823 81.3665 8.74339C81.3665 8.6106 81.3285 8.49114 81.2546 8.38682C81.1806 8.28073 81.078 8.20288 80.9473 8.15172C80.8145 8.10034 80.5718 8.07387 80.2151 8.07387H79.3866V9.42797Z" fill="white"/>
<path d="M9.94961 28.6893H11.9651V37.485C11.9651 39.0124 11.7917 40.2279 11.4442 41.128C11.0973 42.0284 10.4738 42.7581 9.57081 43.3217C8.66735 43.8889 7.48457 44.1687 6.01817 44.1687C4.59425 44.1687 3.4252 43.924 2.52174 43.4316C1.61517 42.9427 0.966829 42.2301 0.580935 41.2982C0.19126 40.366 0 39.0975 0 37.485V28.6893H2.01196V37.4744C2.01196 38.7964 2.13587 39.7708 2.38008 40.3945C2.62474 41.0219 3.04954 41.5037 3.64473 41.844C4.24326 42.184 4.97657 42.3542 5.84089 42.3542C7.32152 42.3542 8.37709 42.0177 9.00742 41.3442C9.63464 40.6745 9.94961 39.3847 9.94961 37.4744V28.6893ZM15.1444 43.91V32.8852H16.8232V34.4517C17.6343 33.2395 18.8031 32.6337 20.3298 32.6337C20.9957 32.6337 21.6049 32.7542 22.161 32.9915C22.7206 33.2326 23.1352 33.5443 23.4114 33.9342C23.6912 34.3207 23.8825 34.7811 23.9957 35.3127C24.0633 35.6599 24.0987 36.2662 24.0987 37.1309V43.91H22.2283V37.2014C22.2283 36.443 22.1574 35.8727 22.0124 35.4933C21.8672 35.1179 21.6085 34.8167 21.2399 34.5934C20.8683 34.3665 20.4359 34.2531 19.9366 34.2531C19.1397 34.2531 18.4562 34.5084 17.875 35.0115C17.2978 35.5184 17.0107 36.475 17.0107 37.8889V43.91H15.1444ZM27.0368 30.8406V28.6893H28.9071V30.8406H27.0368ZM27.0368 43.91V32.8852H28.9071V43.91H27.0368ZM34.8775 43.91L30.6833 32.8852H32.6564L35.0225 39.4875C35.2776 40.1994 35.5116 40.9403 35.7276 41.7092C35.8939 41.128 36.1243 40.4301 36.4217 39.6111L38.873 32.8852H40.7926L36.6201 43.91H34.8775ZM50.0499 40.3593L51.9804 40.5964C51.6757 41.7268 51.1126 42.6024 50.291 43.2263C49.4654 43.8462 48.4135 44.158 47.1349 44.158C45.5232 44.158 44.2445 43.662 43.3024 42.6698C42.3567 41.6774 41.8856 40.2846 41.8856 38.4917C41.8856 36.6345 42.3638 35.1957 43.3166 34.1717C44.2728 33.1477 45.5092 32.6337 47.0321 32.6337C48.5056 32.6337 49.71 33.1368 50.6415 34.1397C51.5768 35.1426 52.0443 36.5564 52.0443 38.3747C52.0443 38.4881 52.0407 38.6545 52.0336 38.8743H43.8162C43.8832 40.086 44.227 41.0148 44.8433 41.656C45.4596 42.3013 46.2245 42.6236 47.1456 42.6236C47.829 42.6236 48.4136 42.4429 48.8989 42.0815C49.384 41.7236 49.7667 41.1494 50.0499 40.3593ZM43.9187 37.3362H50.0714C49.99 36.4112 49.7525 35.7133 49.3664 35.2524C48.7712 34.5331 47.9992 34.1717 47.0532 34.1717C46.1963 34.1717 45.4736 34.4588 44.8891 35.0329C44.3048 35.6067 43.9826 36.3761 43.9187 37.3362ZM54.3732 43.91V32.8852H56.0522V34.5542C56.4808 33.7747 56.8774 33.2573 57.2422 33.0094C57.6036 32.7614 58.004 32.6337 58.4394 32.6337C59.0698 32.6337 59.7077 32.8356 60.3594 33.2362L59.7146 34.9724C59.2615 34.6997 58.8045 34.5651 58.3474 34.5651C57.9366 34.5651 57.5716 34.6888 57.246 34.9337C56.9201 35.1817 56.6897 35.5217 56.5516 35.9577C56.3427 36.6205 56.2397 37.3469 56.2397 38.1369V43.91H54.3732ZM60.7899 40.6178L62.6354 40.3273C62.7381 41.0677 63.0286 41.6349 63.5032 42.0317C63.9743 42.4249 64.6367 42.6236 65.4903 42.6236C66.3477 42.6236 66.9852 42.4465 67.3995 42.0991C67.8139 41.7483 68.0228 41.3371 68.0228 40.8693C68.0228 40.4443 67.8388 40.1144 67.4703 39.87C67.2152 39.7034 66.5777 39.4946 65.5613 39.2393C64.1939 38.8918 63.241 38.5942 62.7132 38.3391C62.1854 38.0873 61.7819 37.7368 61.5092 37.2902C61.2361 36.8436 61.098 36.3512 61.098 35.8125C61.098 35.32 61.2114 34.8663 61.4381 34.4482C61.6614 34.0262 61.9694 33.6793 62.3556 33.4028C62.6463 33.1899 63.0426 33.0058 63.5424 32.8567C64.045 32.7082 64.5835 32.6337 65.1574 32.6337C66.0217 32.6337 66.7797 32.7614 67.4351 33.0094C68.0904 33.2573 68.5721 33.5941 68.8835 34.0191C69.1953 34.4481 69.408 35.0151 69.5247 35.7273L67.7007 35.9791C67.6155 35.4119 67.3748 34.9688 66.9781 34.6501C66.5813 34.3309 66.0179 34.1717 65.2921 34.1717C64.4347 34.1717 63.822 34.3134 63.4574 34.5969C63.0889 34.8803 62.9045 35.2133 62.9045 35.5927C62.9045 35.8371 62.9828 36.0533 63.1349 36.2482C63.2873 36.4504 63.5243 36.6132 63.8502 36.748C64.0381 36.8154 64.5871 36.9748 65.501 37.2228C66.8224 37.5773 67.743 37.8642 68.2639 38.0911C68.7881 38.3142 69.1989 38.6438 69.4963 39.0729C69.7941 39.5012 69.9426 40.033 69.9426 40.6707C69.9426 41.2946 69.7585 41.8794 69.3973 42.4323C69.0325 42.9814 68.5083 43.4067 67.8248 43.7078C67.1409 44.009 66.3653 44.158 65.501 44.158C64.0666 44.158 62.9754 43.8604 62.2245 43.265C61.4737 42.6698 60.9955 41.7873 60.7899 40.6178ZM72.2362 30.8406V28.6893H74.1065V30.8406H72.2362ZM72.2362 43.91V32.8852H74.1065V43.91H72.2362ZM81.0936 42.2372L81.3625 43.8889C80.8384 43.9987 80.3673 44.0555 79.953 44.0555C79.2726 44.0555 78.7484 43.9491 78.3732 43.7327C78.0011 43.5201 77.7393 43.2365 77.5867 42.886C77.4346 42.5383 77.3565 41.8015 77.3565 40.6816V34.3383H75.986V32.8852H77.3565V30.1529L79.2163 29.0334V32.8852H81.0936V34.3383H79.2163V40.7841C79.2163 41.3195 79.2479 41.6598 79.3117 41.812C79.3791 41.9645 79.4855 42.0851 79.634 42.1769C79.7828 42.2657 79.9952 42.3115 80.2719 42.3115C80.4805 42.3115 80.7533 42.2868 81.0936 42.2372ZM82.902 48.1553L82.693 46.4011C83.1038 46.5114 83.4581 46.5677 83.7628 46.5677C84.1771 46.5677 84.5101 46.4969 84.7581 46.3588C85.0094 46.2205 85.2116 46.0292 85.3708 45.7777C85.4914 45.5935 85.6789 45.1291 85.9409 44.3884C85.9765 44.2821 86.033 44.1333 86.1073 43.9311L81.9281 32.8852H83.9396L86.2352 39.2677C86.529 40.0793 86.7983 40.9296 87.0318 41.8226C87.2478 40.9652 87.5029 40.1289 87.8007 39.31L90.1562 32.8852H92.0229L87.8324 44.0977C87.3829 45.3099 87.0318 46.1426 86.7841 46.5997C86.4511 47.2162 86.0722 47.6664 85.6436 47.9535C85.2116 48.2405 84.7014 48.3857 84.1062 48.3857C83.7448 48.3857 83.3448 48.3079 82.902 48.1553Z" fill="white"/>
<line x1="108.387" y1="1.59023e-08" x2="108.387" y2="53.8429" stroke="white" stroke-width="0.727606"/>
<path d="M190.458 5.47906H190.589C190.551 5.91646 190.372 6.73572 190.282 7.17457L189.823 9.46148L188.108 18.1358C187.093 18.2683 186.005 18.4979 184.962 18.6505C184.942 17.8771 185.012 17.0376 184.972 16.2922C184.907 15.0651 185.021 13.7095 184.916 12.507C184.662 13.2902 184.672 13.9689 184.527 14.7339C184.268 16.0889 184.051 17.5776 183.732 18.9155C183.044 18.9137 181.845 19.2497 181.027 19.3285C181.151 18.3699 181.512 16.8328 181.71 15.8596L182.811 10.3087C183.038 9.17812 183.354 7.79924 183.524 6.69303C184.468 6.60597 185.659 6.33929 186.649 6.1966C186.717 8.22706 186.624 10.3302 186.746 12.3473C186.942 11.61 187.076 10.2645 187.214 9.46509C187.419 8.28317 187.648 7.13872 187.876 5.9623C188.642 5.81161 189.729 5.71553 190.458 5.47906Z" fill="white"/>
<path d="M151.087 12.2733L151.143 12.2675L151.185 12.32C151.182 12.5543 151.1 12.8171 151.057 13.0574C150.874 14.0728 150.672 15.0887 150.471 16.1007L149.432 21.2662C149.191 22.467 148.969 23.6701 148.687 24.8608C147.81 25.0693 146.835 25.1501 145.882 25.3741C146.266 23.2368 146.755 20.9058 147.208 18.7672L147.596 16.9327C147.687 16.5212 147.818 16.022 147.873 15.6124C147.564 16.3481 147.208 17.7251 146.958 18.5516L145.713 22.643C145.43 23.5816 145.15 24.578 144.838 25.5027C143.976 25.6947 143.326 25.7939 142.458 25.9065C142.712 24.6319 142.729 23.1522 142.874 21.8569C143.079 20.0267 143.24 18.1993 143.411 16.3663C143.342 16.5773 143.291 16.7874 143.238 17.0026C143.168 17.5007 143.049 18.0046 142.954 18.5001L142.206 22.2211L141.804 24.2814C141.683 24.933 141.605 25.4977 141.403 26.1345C140.446 26.2706 139.558 26.4508 138.618 26.5881C139.248 23.7763 139.724 20.8909 140.342 18.0725C140.636 16.7288 140.933 15.3215 141.132 13.963C142.52 13.7694 144.21 13.4622 145.581 13.1969L145.041 17.7158C144.935 18.5728 144.784 19.5537 144.713 20.4049C145.017 19.6643 145.232 18.6473 145.466 17.8637C145.942 16.2642 146.33 14.6213 146.783 13.0209C147.317 12.8794 147.912 12.808 148.459 12.716L151.087 12.2733Z" fill="white"/>
<path d="M178.81 7.35561C180.978 7.10545 181.951 8.18984 181.882 10.3078C181.798 12.903 181.187 15.8648 179.876 18.1105C179.173 19.3144 178.122 19.9208 176.792 20.2179C176.738 20.2327 176.682 20.2439 176.625 20.2521C175.188 20.4597 173.787 19.8228 173.697 18.2374C173.497 14.77 174.533 7.95091 178.81 7.35561ZM178.363 10.0402C177.749 10.3975 177.513 11.3497 177.342 11.9972C177.086 12.9663 176.239 16.6535 176.645 17.383C176.692 17.468 176.77 17.5438 176.867 17.5675C176.943 17.586 177.036 17.5853 177.114 17.5802C177.757 17.2138 177.94 16.3931 178.123 15.7238C178.373 14.8125 179.276 10.9388 178.86 10.2013C178.815 10.1223 178.747 10.0705 178.659 10.048C178.562 10.023 178.462 10.0314 178.363 10.0402Z" fill="white"/>
<path d="M159.97 10.6107C160.597 10.5115 161.669 10.9795 161.969 11.5557C162.338 12.2652 162.356 13.2414 162.162 13.9953C161.247 14.1864 160.565 14.2346 159.62 14.5086C159.629 14.1164 159.924 12.2359 158.88 13.1454C158.543 13.4869 158.432 14.0671 158.429 14.5163C158.413 15.0565 158.842 15.4621 159.268 15.7367C160.347 16.4323 161.258 17.1429 161.261 18.5667C161.264 19.9075 160.83 21.3366 159.891 22.3298C158.991 23.2813 157.697 23.6124 156.426 23.6415C155.758 23.6715 155.016 23.4228 154.616 22.8587C154.044 22.0522 154.115 21.019 154.26 20.0924C155.135 19.915 156.016 19.7657 156.901 19.6447C156.809 20.0777 156.522 21.4083 157.344 21.3036C158.083 21.2094 158.282 20.1639 158.21 19.5545C158.109 18.6995 157.126 18.4638 156.552 17.9907C155.94 17.5702 155.431 16.7593 155.363 16.0003C155.255 14.7987 155.652 13.2754 156.39 12.3165C157.285 11.1548 158.599 10.7904 159.97 10.6107Z" fill="white"/>
<path d="M167.426 9.34219C168.02 9.28866 168.794 9.51084 169.199 9.95778C169.868 10.6962 169.732 11.7623 169.694 12.6784C168.983 12.8642 167.826 13.0058 167.055 13.1563C167.541 10.8275 165.915 11.4747 165.896 13.0984C165.884 14.0861 167.282 14.7083 167.942 15.3794C169.386 16.8484 168.595 19.8034 167.271 21.1198C166.339 22.0486 165.028 22.3484 163.747 22.3427C163.715 22.3416 163.683 22.3394 163.65 22.3361C161.589 22.1341 161.66 20.3575 161.82 18.7924C162.617 18.602 163.719 18.5302 164.479 18.2871C164.323 18.6804 164.043 20.0717 164.8 20.0025C165.481 19.9402 165.752 18.9248 165.704 18.365C165.625 17.4489 164.543 17.1112 163.949 16.575C163.324 16.0369 162.984 15.4215 162.906 14.5883C162.809 13.3711 163.266 11.8226 164.057 10.8859C164.942 9.83728 166.1 9.45638 167.426 9.34219Z" fill="white"/>
<path d="M174.266 8.30853L174.305 8.32861C174.341 8.43102 172.029 19.7955 171.819 20.883C171.017 21.1147 169.686 21.2461 168.797 21.4394L168.723 21.4012C168.711 21.2117 169.172 19.1446 169.245 18.7741L170.439 12.7726C170.695 11.4769 170.94 10.1198 171.226 8.83432C171.832 8.66119 173.591 8.40205 174.266 8.30853Z" fill="white"/>
<path d="M155.048 11.602C155.128 11.5855 155.142 11.589 155.219 11.6038C155.306 11.7419 154.987 13.0695 154.938 13.3221C154.701 14.6054 154.449 15.8858 154.182 17.163L152.767 24.1763C152.665 24.1994 152.563 24.2161 152.46 24.231C151.604 24.3547 150.756 24.5266 149.903 24.6626C149.844 24.679 149.796 24.6717 149.735 24.6683C149.632 24.4839 149.782 24.1999 149.816 23.9938C149.886 23.5756 149.969 23.1579 150.052 22.7422L150.858 18.7684L151.667 14.7546C151.853 13.8221 151.996 12.9921 152.22 12.0629C153.165 11.9379 154.097 11.7184 155.048 11.602Z" fill="white"/>
<g clip-path="url(#clip0_156_445)">
<path d="M144.751 27.1901C145.625 27.1698 146.506 27.3331 147.17 27.9429C148.008 28.7117 148.254 29.9751 148.297 31.0634C148.429 34.4423 147.083 41.0771 144.745 43.6008C143.453 44.9955 141.8 45.694 139.912 45.7655C139.079 45.7806 138.188 45.5264 137.544 44.9785C136.747 44.2971 136.351 42.6992 136.392 41.665C136.561 37.3707 137.42 32.2474 140.371 28.9374C141.528 27.6389 143.12 27.2634 144.751 27.1901ZM141.435 41.8295C142.271 41.329 142.699 39.7394 142.924 38.8448C143.269 37.4705 144.502 32.407 143.887 31.3406C143.839 31.2561 143.764 31.1805 143.667 31.1539C143.548 31.121 143.388 31.1375 143.263 31.1437C142.827 31.3127 142.564 31.8213 142.385 32.2263C141.699 33.7755 140.74 38.5703 140.655 40.3046C140.635 40.7172 140.633 41.202 140.784 41.5937C140.821 41.6887 140.867 41.7518 140.946 41.8158C141.105 41.8743 141.266 41.8452 141.435 41.8295Z" fill="#FFC800"/>
<path d="M183.489 20.7211C185.531 20.5804 186.906 21.2795 187.038 23.4725C187.132 25.0313 186.529 26.8953 185.45 28.0243C185.295 28.1865 185.126 28.334 184.944 28.4648C184.723 28.6245 184.249 28.8252 184.178 29.0165C184.213 29.0492 184.729 29.3807 184.837 29.4506C185.334 29.7733 185.605 30.3596 185.666 30.959C185.856 32.8053 185.447 34.516 184.32 35.9934C182.933 37.8118 180.998 38.6219 178.809 38.9309C177.637 39.1639 176.449 39.3289 175.272 39.5404C174.951 39.5982 174.634 39.6355 174.323 39.7375C174.698 38.2927 174.987 36.5259 175.284 35.039L177.111 25.898C177.285 25.0578 177.452 24.2162 177.611 23.3731C177.705 22.88 177.84 22.0636 177.994 21.6079L181.135 21.0743C181.806 20.956 182.835 20.7542 183.489 20.7211ZM179.426 35.4901L180.096 35.2402C180.56 34.7938 180.994 34.4504 181.192 33.8101C181.355 33.2793 181.459 32.7757 181.477 32.2173C181.49 31.8396 181.368 31.2709 180.898 31.2683C180.837 31.2683 180.777 31.2704 180.716 31.2746C180.579 31.2817 180.426 31.2728 180.32 31.3524C179.978 32.6291 179.77 34.1615 179.426 35.4901ZM180.86 28.2249C181.033 28.1723 181.434 28.0789 181.542 27.9614C181.681 27.8538 181.821 27.7483 181.986 27.5999C182.593 27.055 183.306 24.805 182.343 24.3679C182.329 24.3619 181.933 24.3682 181.844 24.3638L181.691 24.4136C181.457 25.4975 181.156 27.2356 180.86 28.2249Z" fill="#FFC800"/>
<path d="M155.964 25.2023C156.356 25.1828 156.911 25.3187 157.297 25.3919C159.334 25.7787 159.643 28.4337 159.184 30.1686C158.754 30.2 158.234 30.3013 157.798 30.3699C156.965 30.4984 156.133 30.6341 155.302 30.7769C155.999 27.2389 153.765 28.2955 153.724 30.8487C153.72 31.799 154.953 32.4818 155.659 32.9274C158.486 34.7104 158.319 37.4566 157.01 40.2137C155.829 42.7046 153.819 43.7047 151.079 43.8417C150.516 43.8368 150.171 43.8095 149.63 43.6407C147.789 43.076 147.596 41.2216 147.715 39.5694C147.73 39.3682 147.745 38.7401 147.891 38.6803C148.738 38.3329 150.931 38.2885 151.652 37.9549L151.669 37.9469C151.571 38.4809 151.515 39.059 151.515 39.603C151.516 40.4405 151.73 40.3768 152.442 40.3621L152.755 40.1793C153.214 39.4055 153.409 38.8432 153.337 37.8828C153.264 36.9091 151.923 36.3628 151.229 35.796C150.273 35.0151 149.494 34.095 149.373 32.8093C149.202 31.0066 149.875 28.8809 150.978 27.4606C152.323 25.7305 153.968 25.4635 155.964 25.2023Z" fill="#FFC800"/>
<path d="M166.737 23.4191C167.02 23.3704 167.677 23.5084 167.972 23.5665C170.076 23.98 170.338 26.5022 169.949 28.2756C169.75 28.3331 169.214 28.4039 168.981 28.4453C168.014 28.6168 167.086 28.7204 166.127 28.9543C166.192 28.4875 166.598 26.8101 165.747 26.7614C164.654 26.6285 164.326 29.3408 164.779 29.7932C166.415 31.4289 168.619 31.8952 168.631 34.7091C168.639 36.636 168.037 38.7101 166.603 40.1433C165.244 41.5007 163.541 42.0273 161.636 42.0484C161.485 42.0373 161.335 42.0236 161.185 42.0075C160.361 41.9141 159.726 41.586 159.196 40.9362C158.35 39.8983 158.472 38.1823 158.62 36.9087C159.065 36.7462 159.621 36.6987 160.092 36.5949C160.876 36.4217 161.731 36.3962 162.502 36.1678C162.417 36.8199 161.957 38.6665 162.961 38.6066C163.994 38.5449 164.238 36.9759 164.189 36.1846C164.111 34.9277 162.508 34.3764 161.69 33.6839C159.236 31.8178 160.162 27.7887 161.758 25.6645C162.896 24.1489 164.875 23.5946 166.737 23.4191Z" fill="#FFC800"/>
<path d="M205.025 17.027C205.105 17.013 205.083 17.0185 205.17 17.0512C205.303 17.2433 204.589 20.4424 204.556 20.9059C203.329 21.1273 201.924 21.2991 200.735 21.5482C200.709 22.1692 200.304 24.0439 200.133 24.6473C201.091 24.3986 202.519 24.2147 203.525 24.0379C203.434 24.6297 202.973 27.2352 202.748 27.6817C202.08 27.8702 200.185 28.1385 199.445 28.2655C199.271 29.2303 199.017 30.8105 198.719 31.7315C199.952 31.4743 201.146 31.3153 202.377 31.0908C202.364 31.3113 202.331 31.5243 202.283 31.7396C202.048 32.7985 201.904 33.9003 201.631 34.9488C201.335 35.0613 201.1 35.1164 200.79 35.1793C198.402 35.6592 196.031 35.9882 193.651 36.4324C193.967 35.0688 194.239 33.4963 194.517 32.1039C195.218 28.4268 195.967 24.7591 196.765 21.1018C196.881 20.5805 197.204 18.7131 197.389 18.3596C197.588 18.271 199.232 18.0069 199.524 17.9573L205.025 17.027Z" fill="#FFC800"/>
<path d="M193.094 19.0497C193.215 19.0373 193.18 19.0247 193.282 19.0737C193.359 19.3035 192.875 21.4011 192.787 21.8419C192.42 23.7384 192.038 25.6319 191.641 27.5223C191.36 28.884 191.148 30.2441 190.786 31.5932C190.662 32.0547 190.607 32.5244 190.448 32.9918C191.41 32.7485 192.616 32.6402 193.611 32.4215C193.44 33.1903 193.036 35.9532 192.761 36.5067C192.624 36.6587 189.285 37.1567 188.789 37.2564C187.884 37.3531 186.342 37.6657 185.419 37.8303L188.034 24.7142C188.176 24.0064 188.88 20.1239 189.1 19.7437C189.274 19.6739 189.947 19.5616 190.167 19.5253C191.143 19.3647 192.118 19.2193 193.094 19.0497Z" fill="#FFC800"/>
<path d="M176.567 21.88L176.625 21.876C176.737 22.1407 175.773 26.6034 175.657 27.1751C175.236 29.3438 174.803 31.5102 174.359 33.6743C174.032 35.302 173.765 36.9479 173.354 38.5532C173.24 38.9975 173.194 39.4598 173.038 39.8967C172.618 40.0245 171.822 40.1436 171.373 40.2202L168.632 40.6804L168.583 40.6859C168.533 40.552 169.071 38.1058 169.13 37.8087C169.631 35.1983 170.15 32.5914 170.687 29.9881L171.526 25.782C171.722 24.769 171.908 23.7099 172.142 22.7056C172.555 22.6182 173.154 22.424 173.538 22.3817C174.46 22.2802 175.679 21.9116 176.567 21.88Z" fill="#FFC800"/>
<path d="M124.023 47.4729L124.034 47.4436C124.121 47.2161 124.255 46.4 124.307 46.119C124.455 45.327 124.61 44.5363 124.772 43.7471C125.538 39.9965 126.223 36.2042 127.076 32.4788C127.173 32.0533 127.408 30.64 127.57 30.3629C128.231 30.0803 129.806 29.9685 130.562 29.7954C131.406 29.6373 132.312 29.4887 133.163 29.4142C134.414 29.3047 135.953 29.7298 136.42 31.0313C137.072 32.8467 136.56 35.5589 135.869 37.2918C135.197 38.9777 134.006 40.4478 132.421 41.3164C131.212 42.0227 130.632 42.181 129.278 42.4324C129.002 44.1305 128.522 45.9411 128.26 47.5905C127.815 47.6907 124.644 48.239 124.45 48.3638H124.023V47.4729ZM130.032 38.5094C130.187 38.4557 130.706 38.3158 130.771 38.1784C131.886 37.2019 132.109 36.1578 132.218 34.705C132.299 33.614 132.195 33.3858 131.116 33.4504C130.985 33.584 130.848 34.5704 130.803 34.8233C130.667 35.5842 130.52 36.3432 130.363 37.1001C130.287 37.4697 130.147 38.1705 130.032 38.5094Z" fill="#FFC800"/>
<path d="M186.521 42.9332L186.603 39.9367L187.249 39.8208L187.167 42.8173L186.521 42.9332ZM186.126 40.0894L186.141 39.501L187.759 39.2108L187.745 39.7992L186.126 40.0894ZM187.889 42.6878L187.988 39.1698L188.644 39.0522L188.545 42.5702L187.889 42.6878ZM189.071 42.476L189.17 38.9579L189.821 38.8412L189.722 42.3592L189.071 42.476ZM188.357 41.1202L188.383 40.5395L189.36 40.3643L189.339 40.9443L188.357 41.1202ZM190.088 42.2936L190.187 38.7756L191.587 38.5245L191.576 39.1028L190.622 39.2737L190.793 39.0751L190.719 41.7676L190.565 41.6319L191.509 41.4626L191.493 42.0417L190.088 42.2936ZM190.587 40.6821L190.6 40.1419L191.461 39.9877L191.443 40.5287L190.587 40.6821ZM193.408 41.7368C193.219 41.7707 193.066 41.747 192.949 41.6655C192.831 41.581 192.742 41.4577 192.681 41.2958C192.619 41.1308 192.58 40.9394 192.563 40.7215C192.546 40.5005 192.542 40.2708 192.55 40.0324C192.557 39.7495 192.579 39.499 192.617 39.281C192.657 39.0593 192.715 38.8698 192.789 38.7124C192.862 38.552 192.958 38.4244 193.075 38.3297C193.195 38.2314 193.341 38.1669 193.511 38.1364C193.744 38.0947 193.933 38.1136 194.079 38.1931C194.223 38.2696 194.329 38.3962 194.396 38.5731C194.463 38.7499 194.499 38.9691 194.505 39.2307L193.904 39.3383C193.899 39.2016 193.886 39.0839 193.865 38.9852C193.844 38.8834 193.809 38.8079 193.762 38.7588C193.715 38.7096 193.648 38.6928 193.561 38.7084C193.48 38.7229 193.413 38.7734 193.358 38.8601C193.305 38.9431 193.265 39.0721 193.235 39.247C193.206 39.4219 193.188 39.6524 193.181 39.9384C193.178 40.1151 193.177 40.2801 193.179 40.4334C193.183 40.5831 193.196 40.7153 193.216 40.83C193.24 40.9411 193.276 41.0259 193.324 41.0844C193.376 41.1423 193.447 41.1631 193.537 41.147C193.612 41.1337 193.672 41.0956 193.719 41.0329C193.768 40.9696 193.806 40.878 193.833 40.758C193.862 40.6344 193.88 40.479 193.888 40.2919L193.894 40.1372L193.959 40.2024L193.521 40.2808L193.527 39.7757L194.499 39.6014L194.457 41.5103L194.034 41.5862L194.026 41.1123L194.007 41.1156C193.97 41.2471 193.922 41.355 193.863 41.4391C193.805 41.5232 193.737 41.5898 193.659 41.6389C193.585 41.6875 193.501 41.7201 193.408 41.7368ZM194.673 41.4715L195.368 37.8467L196.219 37.6941L196.753 41.0987L196.139 41.2088L195.844 38.8417L195.782 38.3102L195.745 38.3169L195.676 38.8717L195.311 41.3573L194.673 41.4715ZM195.358 40.6574L195.431 40.1258L196.063 40.0123L196.121 40.5206L195.358 40.6574ZM196.98 41.058L197.074 37.5408L198.009 37.3732L198.185 39.0222L198.223 39.7693L198.255 39.7634L198.324 38.9972L198.595 37.2681L199.535 37.0996L199.441 40.6168L198.836 40.7253L198.89 38.8574L198.937 37.9174L198.905 37.9232L198.732 39.0777L198.431 40.7978L197.994 40.8762L197.784 39.2525L197.673 38.1776L197.641 38.1835L197.634 39.0826L197.584 40.9496L196.98 41.058ZM199.81 40.5506L199.909 37.0326L201.309 36.7815L201.298 37.3598L200.344 37.5308L200.515 37.3321L200.441 40.0246L200.287 39.889L201.231 39.7197L201.215 40.2987L199.81 40.5506ZM200.308 38.9392L200.322 38.399L201.183 38.2447L201.164 38.7857L200.308 38.9392Z" fill="white"/>
</g>
<defs>
<clipPath id="clip0_156_445">
<rect width="81.2643" height="32.1044" fill="white" transform="translate(124.023 16.2594)"/>
</clipPath>
</defs>
</svg>
